Coordinates
version=1
nRows=17
nColumns=24
inDegrees=yes

Units are S.I. units (second, meters, Newtons, ...)
Angles are in degrees.

endheader
time	pelvis_tilt	pelvis_list	pelvis_rotation	pelvis_tx	pelvis_ty	pelvis_tz	hip_flexion_r	hip_adduction_r	hip_rotation_r	knee_angle_r	ankle_angle_r	subtalar_angle_r	mtp_angle_r	hip_flexion_l	hip_adduction_l	hip_rotation_l	knee_angle_l	ankle_angle_l	subtalar_angle_l	mtp_angle_l	lumbar_extension	lumbar_bending	lumbar_rotation
      4.95500000	     13.39398535	     -7.40896330	     12.42680134	      0.46539353	      0.93498100	     -0.24367483	     -7.83808927	     13.76059847	     -4.74838737	     -9.66877048	     20.87257132	     -4.36869306	      0.00000000	      1.55571018	     -9.03973157	      9.13717965	    -66.27978559	     13.30817330	     -3.01878700	      0.00000000	    -26.97891543	     12.10437195	     -9.66136939
      4.96000000	     13.40483362	     -7.14645421	     12.10739588	      0.47146210	      0.93565040	     -0.24307684	     -8.51770615	     13.53640443	     -4.58070258	     -9.33335689	     21.11227017	     -3.98797899	      0.00000000	      2.12640712	     -8.45987516	      9.01964662	    -65.93529043	     13.81369690	     -3.24012695	      0.00000000	    -27.06323253	     11.67456540	     -9.31003917
      4.96500000	     13.35041936	     -6.89885041	     11.90122824	      0.47753827	      0.93616154	     -0.24251975	     -9.12051475	     13.34221201	     -4.45364631	     -8.95937124	     21.27660530	     -3.80723616	      0.00000000	      2.80117560	     -7.89867859	      9.02167978	    -65.55136683	     14.32827793	     -3.27750893	      0.00000000	    -27.03241380	     11.28992289	     -9.13685852
      4.97000000	     13.35055315	     -6.64969101	     11.56860548	      0.48357703	      0.93670286	     -0.24190971	     -9.77823187	     13.11761617	     -4.28708782	     -8.62333814	     21.53190477	     -3.43855315	      0.00000000	      3.36135722	     -7.35232420	      8.86889472	    -65.05806432	     14.78442355	     -3.45724691	      0.00000000	    -27.09750115	     10.86467151	     -8.77892730
      4.97500000	     13.29434847	     -6.42165088	     11.35053279	      0.48964198	      0.93711932	     -0.24136630	    -10.37397326	     12.93149981	     -4.17233438	     -8.24129130	     21.64065360	     -3.25463321	      0.00000000	      4.00816240	     -6.83146543	      8.83415660	    -64.51725024	     15.24526246	     -3.45909657	      0.00000000	    -27.06297779	     10.50134870	     -8.58307256
      4.98000000	     13.34326417	     -6.18565679	     10.97159430	      0.49571050	      0.93763662	     -0.24073769	    -11.09283641	     12.70926886	     -3.96911252	     -7.88271599	     21.83651293	     -2.89394064	      0.00000000	      4.46698396	     -6.33544892	      8.60882245	    -63.85015315	     15.63930467	     -3.61599193	      0.00000000	    -27.17816467	     10.07941616	     -8.15591016
      4.98500000	     13.27387541	     -5.97613505	     10.77412602	      0.50172636	      0.93790406	     -0.24021644	    -11.65641461	     12.53815903	     -3.87333678	     -7.50660127	     21.95033315	     -2.74874554	      0.00000000	      5.11054103	     -5.85083591	      8.57832077	    -63.17188527	     16.06662700	     -3.58408698	      0.00000000	    -27.12827824	      9.73857116	     -7.98433378
      4.99000000	     13.39114440	     -5.73740217	     10.37628998	      0.50776437	      0.93839088	     -0.23957787	    -12.44625915	     12.31187480	     -3.62051855	     -7.13991825	     22.12032924	     -2.47399857	      0.00000000	      5.45460987	     -5.39230517	      8.31571138	    -62.34364691	     16.43058649	     -3.67439035	      0.00000000	    -27.32651728	      9.32188712	     -7.54125509
      4.99500000	     13.29714864	     -5.56913261	     10.18775018	      0.51376455	      0.93850761	     -0.23909719	    -12.97044801	     12.17142155	     -3.55023244	     -6.76191183	     22.21148135	     -2.30751926	      0.00000000	      6.10452409	     -4.96188446	      8.28930575	    -61.53406268	     16.78652749	     -3.65834409	      0.00000000	    -27.24058688	      9.02249724	     -7.36109311
      5.00000000	     13.30420324	     -5.37909390	      9.81087431	      0.51976930	      0.93874164	     -0.23857403	    -13.60996813	     11.96164779	     -3.34995982	     -6.42563004	     22.40077716	     -1.99877828	      0.00000000	      6.55902867	     -4.54054566	      8.06082473	    -60.59151508	     17.09707039	     -3.74980597	      0.00000000	    -27.30545511	      8.67231746	     -6.95958602
      5.00500000	     13.31272442	     -5.20024801	      9.51921246	      0.52579889	      0.93890261	     -0.23808128	    -14.25083908	     11.78993502	     -3.18452665	     -6.05928979	     22.52849048	     -1.85197449	      0.00000000	      7.01362528	     -4.14818697	      7.90517748	    -59.58988286	     17.40775310	     -3.72958461	      0.00000000	    -27.34250487	      8.36267416	     -6.66654126
      5.01000000	     13.32490733	     -5.04065774	      9.22421295	      0.53182006	      0.93900609	     -0.23758288	    -14.89148734	     11.63314833	     -3.01264069	     -5.69064173	     22.62654867	     -1.69243550	      0.00000000	      7.45019611	     -3.78688191	      7.75052025	    -58.52806002	     17.69333358	     -3.70474060	      0.00000000	    -27.39057048	      8.06219456	     -6.34912069
      5.01500000	     13.34629497	     -4.89224503	      8.92992900	      0.53780185	      0.93906220	     -0.23710298	    -15.53237889	     11.48402115	     -2.82882406	     -5.32904628	     22.71786252	     -1.55604423	      0.00000000	      7.86149029	     -3.44790313	      7.59692794	    -57.39954211	     17.96090318	     -3.66427426	      0.00000000	    -27.45366170	      7.77558484	     -6.03303515
      5.02000000	     13.40064101	     -4.75580136	      8.61792997	      0.54379442	      0.93912229	     -0.23663669	    -16.21170893	     11.34049583	     -2.63462104	     -4.95891723	     22.76205024	     -1.43656349	      0.00000000	      8.21032124	     -3.13816612	      7.42918268	    -56.19767124	     18.17666967	     -3.60276001	      0.00000000	    -27.55657255	      7.50575725	     -5.67531376
      5.02500000	     13.43435211	     -4.63260921	      8.33431500	      0.54978274	      0.93908135	     -0.23621758	    -16.85571913	     11.21103274	     -2.45356009	     -4.60370773	     22.83368744	     -1.35012461	      0.00000000	      8.56750436	     -2.84364337	      7.29492052	    -54.93692922	     18.40864955	     -3.51537382	      0.00000000	    -27.62933261	      7.26411249	     -5.36695414
      5.03000000	     13.36444132	     -4.55744852	      8.16243431	      0.55575753	      0.93881838	     -0.23590861	    -17.36691997	     11.14912971	     -2.36591895	     -4.25257069	     22.88914440	     -1.31039039	      0.00000000	      9.05902375	     -2.57800642	      7.29151760	    -53.66242130	     18.63609055	     -3.32504569	      0.00000000	    -27.56530510	      7.10558434	     -5.18055505
      5.03500000	     13.42768616	     -4.44902814	      7.79352872	      0.56173233	      0.93873134	     -0.23548413	    -18.02511711	     10.99804573	     -2.09461933	     -3.94574969	     22.99420713	     -1.22076015	      0.00000000	      9.31258367	     -2.32567728	      7.09156557	    -52.24370904	     18.85458358	     -3.25935602	      0.00000000	    -27.69045816	      6.86596521	     -4.80452491
